<svg id="Layer_1" data-name="Layer 1" xmlns="http://www.w3.org/2000/svg" viewBox="0 0 420 603">
  <title>cover</title>
  <rect width="420" height="603" style="fill: #0d4e96"/>
  <g>
    <g>
      <path d="M199.27,322.66a7.23,7.23,0,0,0-5.55-2.38c-4.64,0-8,3.84-8,8.72s3.4,8.72,8,8.72a7.23,7.23,0,0,0,5.55-2.38v2h4.38V320.66h-4.38Zm-4.6,11.15a4.81,4.81,0,1,1,4.6-4.81A4.62,4.62,0,0,1,194.67,333.81Z" style="fill: #fff"/>
      <path d="M211.59,322.71v-2h-4.43v16.68h4.43V328.5a4,4,0,0,1,3.89-4.31,5.86,5.86,0,0,1,1.77.32l.3-3.88a3.3,3.3,0,0,0-1.51-.35A5.49,5.49,0,0,0,211.59,322.71Z" style="fill: #fff"/>
      <rect x="219.33" y="313.84" width="4.42" height="23.5" style="fill: #fff"/>
      <path d="M235.48,320.28c-5.29,0-9.25,3.84-9.25,8.72s4,8.72,9.25,8.72,9.25-3.84,9.25-8.72S240.79,320.28,235.48,320.28Zm0,13.53A4.81,4.81,0,1,1,240.3,329,4.73,4.73,0,0,1,235.48,333.81Z" style="fill: #fff"/>
      <path d="M255.09,320.28a7.78,7.78,0,0,0-7.92,7.61v9.45h4.42v-9.73a3.5,3.5,0,0,1,3.5-3.46,3.44,3.44,0,0,1,3.43,3.46v9.73h4.42v-9.45A7.72,7.72,0,0,0,255.09,320.28Z" style="fill: #fff"/>
      <path d="M175.72,320.28a7,7,0,0,0-5.48,2.94,6.87,6.87,0,0,0-5.49-2.94,7.56,7.56,0,0,0-7.69,7.42l0,7.74v1.9h4.42v-9.73a3.26,3.26,0,0,1,3.26-3.26,3.3,3.3,0,0,1,3.27,3.3v9.69h4.43v-9.69a3.3,3.3,0,0,1,3.27-3.3,3.25,3.25,0,0,1,3.25,3.26l0,7.83v1.9h4.42V327.7A7.56,7.56,0,0,0,175.72,320.28Z" style="fill: #fff"/>
    </g>
    <g>
      <g>
        <path d="M237.13,249.42l-8.53-1.88L215.32,260c7.13,2.66,11.22,11.07,13.68,19.77a56.06,56.06,0,0,1,19.47-19.85C243.07,250.41,237.13,249.42,237.13,249.42Z" style="fill: #00a0e3"/>
        <path d="M177.47,261.73a20,20,0,0,0-2.31,1.22Z" style="fill: #00a0e3"/>
        <path d="M204.34,257.83c-4-4.21-13.17-3.36-13.17-3.36l-13.7,7.26c7.68-3.42,13.22.84,16.89,6.15-5.07,16.58,3.63,33.19,12,34.12,15.81,1.74,19.11-6.24,17.49-19.82C222.33,269.11,212.59,258.37,204.34,257.83Z" style="fill: #00a0e3"/>
      </g>
      <g>
        <path d="M254.57,277.16a59.11,59.11,0,0,0-6.1-17.29A56.06,56.06,0,0,0,229,279.72c.32,1.15.62,2.29.88,3.43,1.65,6.94,10.4,10.82,17,8.5C252.56,289.64,255.82,283.2,254.57,277.16Z" style="fill: #67ccf2"/>
        <path d="M242.76,252.67c-8.35-7.24-19.27-8.41-29.7-6.09a23.75,23.75,0,0,0-12.91,8.32,25.59,25.59,0,0,0-4-1c-5.48-.85-10.55-1-15.66.79-14.34,5-23.49,33.77-4.72,33.29a9.12,9.12,0,0,0,8.65-8.4c.93-8.25,4.51-27.06,15-23.81a38.09,38.09,0,0,0-6.84,14.69c-2.37,10.45-.86,23.53,8.84,30.39,3.78,2.67,16.92,2.64,20.57-3.49a1.62,1.62,0,0,1-.8.67c-3.2,1.24-5.32-11.26-5.56-13.16-1.18-9.41,1.53-18.63,6.6-26.51C226.85,251.23,234.34,245.36,242.76,252.67Z" style="fill: #67ccf2"/>
      </g>
    </g>
  </g>
  <g>
    <path d="M402.91,8.6H17.09a8.51,8.51,0,0,0-8.51,8.5V585.64a8.51,8.51,0,0,0,8.51,8.5H402.91a8.51,8.51,0,0,0,8.51-8.5V17.1A8.51,8.51,0,0,0,402.91,8.6ZM189.73,11.43h4.36v2.5a15.91,15.91,0,0,0,31.82,0v-2.5h4.37v2.5a20.28,20.28,0,0,1-40.55,0Zm16.91,0h6.72v2.5a3.36,3.36,0,0,1-6.72,0Zm3.36,7a4.54,4.54,0,0,0,4.56-4.52v-2.5h10.15v2.5a14.71,14.71,0,0,1-29.42,0v-2.5h10.15v2.5A4.55,4.55,0,0,0,210,18.45ZM14.41,306.38a5,5,0,1,0,0-10h-3V284.9h3a16.47,16.47,0,0,1,0,32.94h-3V306.38Zm-3-1.2v-7.62h3a3.81,3.81,0,1,1,0,7.62Zm3,13.86a17.67,17.67,0,0,0,0-35.34h-3v-5h3a22.67,22.67,0,0,1,0,45.34h-3v-5Zm175.31,270a19.83,19.83,0,0,1,5.89-14.22,20.25,20.25,0,0,1,14.32-5.94H210a20.23,20.23,0,0,1,14.29,5.84,19.88,19.88,0,0,1,6,14.19v2.37h-4.37V589A15.86,15.86,0,0,0,210,573.23h-.05a15.87,15.87,0,0,0-15.86,15.83v2.25h-4.36Zm16.91-.05a3.35,3.35,0,0,1,3.35-3.34h0a3.34,3.34,0,0,1,3.36,3.31v2.32h-6.72Zm7.92,0a4.54,4.54,0,0,0-4.56-4.51h0a4.56,4.56,0,0,0-3.22,1.33,4.51,4.51,0,0,0-1.33,3.21v2.29H195.29v-2.26A14.67,14.67,0,0,1,210,574.43h0A14.66,14.66,0,0,1,224.7,589v2.35H214.56Zm188.36,2.32H231.48v-2.38a21.05,21.05,0,0,0-6.34-15A21.42,21.42,0,0,0,210,567.71h-.08A21.41,21.41,0,0,0,194.76,574a21.06,21.06,0,0,0-6.24,15.08v2.23H17.09a5.68,5.68,0,0,1-5.67-5.67V325.24h3a23.87,23.87,0,0,0,0-47.74h-3V17.1a5.68,5.68,0,0,1,5.67-5.67H188.53v2.5a21.48,21.48,0,0,0,42.95,0v-2.5H402.91a5.68,5.68,0,0,1,5.67,5.67V277.5h-3a23.87,23.87,0,0,0,0,47.74h3v260.4A5.68,5.68,0,0,1,402.91,591.31Zm2.68-294.95a5,5,0,0,0,0,10h3v11.46h-3a16.47,16.47,0,0,1,0-32.94h3v11.46Zm3,1.2v7.62h-3a3.81,3.81,0,1,1,0-7.62Zm-3-13.86a17.67,17.67,0,0,0,0,35.34h3v5h-3a22.67,22.67,0,0,1,0-45.34h3v5Z" style="fill: #00aeef"/>
    <path d="M27.79,32.1a4.28,4.28,0,1,0-4.27-4.28A4.28,4.28,0,0,0,27.79,32.1Zm0-7.36a3.08,3.08,0,1,1-3.07,3.08A3.08,3.08,0,0,1,27.79,24.74Z" style="fill: #00aeef"/>
    <path d="M391.91,32.1a4.28,4.28,0,1,0-4.27-4.28A4.28,4.28,0,0,0,391.91,32.1Zm0-7.36a3.08,3.08,0,1,1-3.07,3.08A3.08,3.08,0,0,1,391.91,24.74Z" style="fill: #00aeef"/>
    <path d="M27.79,570.64a4.28,4.28,0,1,0,4.28,4.28A4.28,4.28,0,0,0,27.79,570.64Zm0,7.36a3.08,3.08,0,1,1,3.08-3.08A3.08,3.08,0,0,1,27.79,578Z" style="fill: #00aeef"/>
    <path d="M391.91,570.64a4.28,4.28,0,1,0,4.28,4.28A4.28,4.28,0,0,0,391.91,570.64Zm0,7.36a3.08,3.08,0,1,1,3.08-3.08A3.08,3.08,0,0,1,391.91,578Z" style="fill: #00aeef"/>
    <path d="M87.52,105.58a12.81,12.81,0,0,0,4.6,10.32,7.1,7.1,0,0,1,2.51,4.78l.1,1h0v8h3.14a2.78,2.78,0,0,0-.07.57,2.69,2.69,0,1,0,5.37,0,2.78,2.78,0,0,0-.07-.57h3v-8h0l.1-1a7.22,7.22,0,0,1,2.55-4.82,12.91,12.91,0,0,0,.57-19.2,12.76,12.76,0,0,0-9.51-3.56A13,13,0,0,0,87.52,105.58Zm10.61,4.64H96.7a1.43,1.43,0,1,1,1.43-1.43Zm1.2,1.2h2.12V121.7H99.33Zm2.59,18.9a1.49,1.49,0,1,1-3,0,1.6,1.6,0,0,1,.11-.57h2.75A1.6,1.6,0,0,1,101.92,130.32Zm3-1.77h-9v-5.62h9Zm3.6-31A11.71,11.71,0,0,1,108,115a8.42,8.42,0,0,0-3,5.62l-.11,1.13h-2.25V111.42h1.43a2.63,2.63,0,1,0-2.63-2.63v1.43H99.33v-1.43a2.63,2.63,0,1,0-2.63,2.63h1.43V121.7h-2.2l-.11-1.13A8.29,8.29,0,0,0,92.89,115,11.71,11.71,0,1,1,108.5,97.54Zm-5.85,12.68v-1.43a1.43,1.43,0,1,1,1.43,1.43Z" style="fill: #00aeef"/>
    <path d="M314.69,509.45v1.2H324.8v-1.2h-4.45V500.1l12.24-21h-6.82l2-4a2.76,2.76,0,0,1,2.48-1.53h4.65v-1.2h-4.65a3.93,3.93,0,0,0-3.55,2.19l-2.28,4.55h-9.17a7.36,7.36,0,1,0-4.14,7.22l8,13.78v9.35Zm5.06-10.71-5.84-10h11.67ZM308,485.85a6.15,6.15,0,1,1,6.1-6.75h-7.15l3.6,6.18A6.06,6.06,0,0,1,308,485.85Zm6.1-5.55a6.12,6.12,0,0,1-2.51,4.37L309,480.3Zm1.2,0H330.5l-4.22,7.23H313.21l-1-1.81A7.35,7.35,0,0,0,315.26,480.3Z" style="fill: #00aeef"/>
    <path d="M210,473.29a16.65,16.65,0,1,0,16.64,16.65A16.67,16.67,0,0,0,210,473.29Zm0,32.1a15.45,15.45,0,1,1,15.44-15.45A15.46,15.46,0,0,1,210,505.39Z" style="fill: #00aeef"/>
    <path d="M210,484.93a5,5,0,1,0,5,5A5,5,0,0,0,210,484.93Zm0,8.83a3.82,3.82,0,1,1,3.81-3.82A3.82,3.82,0,0,1,210,493.76Z" style="fill: #00aeef"/>
    <path d="M210,96.4a16.4,16.4,0,1,0,16.39,16.4A16.41,16.41,0,0,0,210,96.4Zm0,31.6a15.2,15.2,0,1,1,15.19-15.2A15.21,15.21,0,0,1,210,128Z" style="fill: #00aeef"/>
    <path d="M210,107.78a5,5,0,1,0,5,5A5,5,0,0,0,210,107.78Zm0,8.83a3.82,3.82,0,1,1,3.81-3.81A3.82,3.82,0,0,1,210,116.61Z" style="fill: #00aeef"/>
    <path d="M248.35,518a15.32,15.32,0,1,0,15.31,15.31A15.32,15.32,0,0,0,248.35,518Zm0,29.43a14.12,14.12,0,1,1,14.11-14.12A14.12,14.12,0,0,1,248.35,547.42Z" style="fill: #00aeef"/>
    <path d="M248.35,528.29a5,5,0,1,0,5,5A5,5,0,0,0,248.35,528.29Zm0,8.83a3.82,3.82,0,1,1,3.81-3.82A3.82,3.82,0,0,1,248.35,537.12Z" style="fill: #00aeef"/>
    <path d="M171.65,518A15.32,15.32,0,1,0,187,533.3,15.33,15.33,0,0,0,171.65,518Zm0,29.43a14.12,14.12,0,1,1,14.1-14.12A14.13,14.13,0,0,1,171.65,547.42Z" style="fill: #00aeef"/>
    <path d="M171.65,528.29a5,5,0,1,0,5,5A5,5,0,0,0,171.65,528.29Zm0,8.83a3.82,3.82,0,1,1,3.81-3.82A3.82,3.82,0,0,1,171.65,537.12Z" style="fill: #00aeef"/>
    <path d="M248.35,84.75a15.32,15.32,0,1,0-15.3-15.31A15.33,15.33,0,0,0,248.35,84.75Zm0-29.43a14.12,14.12,0,1,1-14.1,14.12A14.13,14.13,0,0,1,248.35,55.32Z" style="fill: #00aeef"/>
    <path d="M248.35,74.45a5,5,0,1,0-5-5A5,5,0,0,0,248.35,74.45Zm0-8.83a3.82,3.82,0,1,1-3.81,3.82A3.82,3.82,0,0,1,248.35,65.62Z" style="fill: #00aeef"/>
    <path d="M171.65,84.75a15.32,15.32,0,1,0-15.31-15.31A15.32,15.32,0,0,0,171.65,84.75Zm0-29.43a14.12,14.12,0,1,1-14.11,14.12A14.12,14.12,0,0,1,171.65,55.32Z" style="fill: #00aeef"/>
    <path d="M171.65,74.45a5,5,0,1,0-5-5A5,5,0,0,0,171.65,74.45Zm0-8.83a3.82,3.82,0,1,1-3.81,3.82A3.82,3.82,0,0,1,171.65,65.62Z" style="fill: #00aeef"/>
    <path d="M376.76,302.65c0-.49,0-1,0-1.45s0-.8,0-1.2a29.1,29.1,0,0,1,24.53-27.33l.51-.08,0-247.86a6.5,6.5,0,0,0-6.49-6.49H235.48l-.09.49a25.89,25.89,0,0,1-50.78,0l-.09-.49H24.71a6.5,6.5,0,0,0-6.49,6.49l0,247.86.51.08a29.08,29.08,0,0,1,24.53,27.47c0,.35,0,.71,0,1.06s0,.84,0,1.26a29.09,29.09,0,0,1-24.54,27.61l-.51.08,0,247.86a6.64,6.64,0,0,0,6.49,6.62H184.27l.1-.48a24.86,24.86,0,0,1,5.56-11.57H190v-.1a26.39,26.39,0,0,1,19.92-9.09H210a25.8,25.8,0,0,1,25.37,20.73l.09.48H395.29a6.55,6.55,0,0,0,6.49-6.59l0-247.86-.51-.08A29.08,29.08,0,0,1,376.76,302.65Zm19.79,27.55H384.13v-7.73A30,30,0,0,0,396.55,330.2ZM223.28,565.64a27.07,27.07,0,0,0-12.68-3.42V513A23.07,23.07,0,0,0,233,490.57l33.79,0a52.06,52.06,0,0,0,51.4,51.27l0,23.78H248.84V554.48a21.26,21.26,0,1,0-1.2,0v11.17Zm-50.92,0V554.47a21.12,21.12,0,1,0-1.2,0v11.16H101.79l0-23.73a52.12,52.12,0,0,0,51.45-51.32l33.74,0A23.08,23.08,0,0,0,209.4,513v49.23a27.71,27.71,0,0,0-12.82,3.42Zm10.57,17.79h-4.68V566.84h4.68Zm0-547.53h-4.68V19.44h4.68Zm-5.88,0h-4.69V19.44h4.69Zm-5.89,0h-4.68V19.44h4.68Zm-5.88,0H160.6V19.44h4.68Zm-5.88,0h-4.68V19.44h4.68Zm-5.88,0h-4.68V19.44h4.68Zm-5.88,0H143V19.44h4.69Zm-5.89,0h-4.68V19.44h4.68Zm-5.88,0h-4.68V19.44h4.68Zm-5.88,0h-4.68V19.44H130Zm-5.88,0h-4.69V19.44h4.69Zm-5.89,0h-4.68V19.44h4.68Zm-5.88,0h-4.68V19.44h4.68Zm-5.88,0h-4.68V19.44h4.68Zm80.85,77.47a22.76,22.76,0,0,0,15.88,21.11,166.56,166.56,0,0,0-22.58,2.43,9.42,9.42,0,0,0-18.5,2.51,10.16,10.16,0,0,0,.18,1.84,166.77,166.77,0,0,0-27,10.69,51.77,51.77,0,0,0,17.75-38.6Zm45.38,0,34.43,0a51.63,51.63,0,0,0,18.17,38.89,165.64,165.64,0,0,0-27.58-11,9.33,9.33,0,0,0,.18-1.84,9.42,9.42,0,0,0-18.5-2.51,166.56,166.56,0,0,0-22.58-2.43A22.76,22.76,0,0,0,232.69,113.37Zm4.38-93.93h4.68V35.9h-4.68Zm5.88,0h4.69V35.9H243Zm5.89,0h4.68V35.9h-4.68Zm5.88,0h4.68V35.9h-4.68Zm5.88,0h4.68V35.9H260.6Zm5.88,0h4.68V35.9h-4.68Zm5.88,0h4.69V35.9h-4.69Zm5.89,0h4.68V35.9h-4.68Zm5.88,0h4.68V35.9h-4.68Zm5.88,0h4.68V35.9H290Zm5.88,0h4.69V35.9h-4.69Zm5.89,0h4.68V35.9h-4.68Zm5.88,0h4.68V35.9h-4.68Zm5.88,0h4.68V35.9h-4.68Zm5.87,546.2,0-23.78A52.06,52.06,0,0,0,370.8,490.3h12.13v75.33ZM233,489.37a23.11,23.11,0,0,0-16.15-21.44,167.29,167.29,0,0,0,22.41-2.43,9.42,9.42,0,0,0,18.48-2.61,8.88,8.88,0,0,0-.17-1.72,166.08,166.08,0,0,0,27.55-10.95,52,52,0,0,0-18.34,39.17Zm-23,22.44a21.87,21.87,0,1,1,21.85-21.87A21.88,21.88,0,0,1,210,511.81Zm-23-22.44-33.74,0A52,52,0,0,0,135,450.29a165.89,165.89,0,0,0,27.29,10.84,9.29,9.29,0,0,0-.17,1.76,9.42,9.42,0,0,0,18.48,2.59,167.48,167.48,0,0,0,22.52,2.45A23.11,23.11,0,0,0,187,489.37ZM37.07,565.64V490.31H49.15a52.12,52.12,0,0,0,51.42,51.61l0,23.73Zm64.69-147.37a17.24,17.24,0,0,1,5-12.13l1.79-1.79A144.28,144.28,0,0,0,209.4,446v20.86a168,168,0,0,1-28.56-2.55A9.41,9.41,0,0,0,162.58,460,164.64,164.64,0,0,1,101.8,426.6Zm0-242.47a164.54,164.54,0,0,1,23-16.7,50.22,50.22,0,0,0,4.71-2.74,164.94,164.94,0,0,1,33.11-13.94,9.42,9.42,0,0,0,18.35-3,9.82,9.82,0,0,0-.11-1.34,167,167,0,0,1,28.55-2.54V156.4a144.17,144.17,0,0,0-101,41.82l-1.62-1.62a17.26,17.26,0,0,1-5-12.13ZM130,112.9a28.81,28.81,0,1,1-28.81-28.83A28.85,28.85,0,0,1,130,112.9ZM96.08,83.31l-1.63-8.08-1.18.23,1.63,8.07a31,31,0,0,0-4.49,1.35L86.1,74.55,85,75l4.3,10.32a28.75,28.75,0,0,0-4.14,2.2l-4.6-6.86-1,.67,4.6,6.85a29.49,29.49,0,0,0-3.63,3l-7.94-7.9-.85.85L79.67,92a29.53,29.53,0,0,0-3,3.61L69.8,91l-.66,1L76,96.59a29.77,29.77,0,0,0-2.24,4.12L63.42,96.45,63,97.56l10.33,4.26a29.43,29.43,0,0,0-1.38,4.48l-8.15-1.6-.23,1.18,8.14,1.59a29.3,29.3,0,0,0-.49,5l-15,0A45,45,0,0,1,100.57,67.9v15A30,30,0,0,0,96.08,83.31ZM71.2,113.66a29.68,29.68,0,0,0,.42,4.35l-8.08,1.63.24,1.17,8.06-1.62a29.81,29.81,0,0,0,1.35,4.49L62.87,128l.46,1.11,10.31-4.31a28.86,28.86,0,0,0,2.2,4.15L69,133.54l.67,1,6.85-4.6a30.36,30.36,0,0,0,3,3.63l-7.89,8,.85.84,7.89-7.93a30.37,30.37,0,0,0,3.6,3l-4.57,6.88,1,.67,4.56-6.88A30.36,30.36,0,0,0,89,140.33l-4.25,10.35,1.11.46,4.25-10.34a30.51,30.51,0,0,0,4.47,1.39L93,150.28l1.18.23,1.59-8.08a30.22,30.22,0,0,0,5,.48l-.06,15a45,45,0,0,1-44.45-44.25Zm30.74,29.25a29.82,29.82,0,0,0,4.36-.43L108,151l1.18-.24-1.72-8.53a29.81,29.81,0,0,0,4.49-1.35l4.3,10.33,1.11-.46-4.3-10.32a29.28,29.28,0,0,0,4.14-2.2l4.6,6.86,1-.67-4.6-6.85a29.49,29.49,0,0,0,3.63-3l7.94,7.91.85-.85-7.94-7.9a30.56,30.56,0,0,0,3-3.61l6.87,4.58.67-1-6.87-4.57a29.77,29.77,0,0,0,2.24-4.12L139,129.34l.46-1.11L129.07,124a29.82,29.82,0,0,0,1.39-4.48l8.2,1.61.24-1.18-8.2-1.61a30.23,30.23,0,0,0,.49-5h15a45,45,0,0,1-44.28,44.55Zm29.24-30.77a31.26,31.26,0,0,0-.42-4.36l8.08-1.63L138.6,105l-8.07,1.62a29.78,29.78,0,0,0-1.34-4.49l10.32-4.31-.46-1.11L128.74,101a29.77,29.77,0,0,0-2.2-4.14l6.85-4.61-.67-1-6.84,4.59a30.26,30.26,0,0,0-3-3.63l7.9-7.94-.85-.85-7.89,7.94a31.28,31.28,0,0,0-3.6-3l4.57-6.88-1-.66-4.57,6.87a29.66,29.66,0,0,0-4.11-2.24l4.25-10.35-1.11-.46L112.26,85a29.43,29.43,0,0,0-4.48-1.38l1.6-8.15-1.18-.23-1.59,8.14a29.86,29.86,0,0,0-4.85-.49v-15a45,45,0,0,1,44.38,44.24ZM100.57,66.7A46.24,46.24,0,0,0,55,112.44h-4.5a50.74,50.74,0,0,1,50-50.24ZM55,113.64a46.22,46.22,0,0,0,45.64,45.45l0,4.5a50.73,50.73,0,0,1-50.12-49.95Zm46.82,51.15a51.67,51.67,0,0,0,16-2.76,165.9,165.9,0,0,0-16.08,12.17Zm61.46-25.37a8.23,8.23,0,1,1,8.22,8.22A8.23,8.23,0,0,1,163.31,139.42Zm85.16,9.42a9.42,9.42,0,0,0,8.92-6.42,164.54,164.54,0,0,1,60.81,33.37l0,8.68a17.26,17.26,0,0,1-5,12.13l-1.62,1.61a144.19,144.19,0,0,0-101-41.81V135.54a166.8,166.8,0,0,1,28.55,2.54,9.82,9.82,0,0,0-.11,1.34A9.44,9.44,0,0,0,248.47,148.84Zm-8.23-9.42a8.23,8.23,0,1,1,8.23,8.22A8.24,8.24,0,0,1,240.24,139.42ZM290,112.9a28.81,28.81,0,1,1,28.81,28.83A28.85,28.85,0,0,1,290,112.9Zm58.81-.44a29.3,29.3,0,0,0-.49-5l8.14-1.59-.23-1.18-8.15,1.6a29.43,29.43,0,0,0-1.38-4.48L357,97.56l-.45-1.11-10.35,4.26A29.77,29.77,0,0,0,344,96.59L350.86,92l-.66-1-6.88,4.57a29.53,29.53,0,0,0-3-3.61l7.93-7.89-.85-.85-7.94,7.9a29.49,29.49,0,0,0-3.63-3l4.6-6.85-1-.67-4.6,6.86a28.75,28.75,0,0,0-4.14-2.2L335,75l-1.1-.46-4.31,10.33a31,31,0,0,0-4.49-1.35l1.63-8.07-1.18-.23-1.63,8.08a30,30,0,0,0-4.48-.43V68.06a44.88,44.88,0,0,1,44.2,44.38Zm-24.58,30,1.59,8.08,1.18-.23-1.59-8.09a30.51,30.51,0,0,0,4.47-1.39l4.25,10.34,1.11-.46L331,140.33a30.36,30.36,0,0,0,4.12-2.24l4.56,6.88,1-.67-4.57-6.88a30.37,30.37,0,0,0,3.6-3l7.89,7.93.85-.84-7.89-8a30.36,30.36,0,0,0,2.95-3.63l6.85,4.6.67-1-6.86-4.6a28.86,28.86,0,0,0,2.2-4.15l10.31,4.31.46-1.11-10.32-4.31a29.81,29.81,0,0,0,1.35-4.49l8.06,1.62.24-1.17L348.38,118a29.68,29.68,0,0,0,.42-4.35l14.82,0a44.88,44.88,0,0,1-44.3,44.1l-.06-14.83A30.22,30.22,0,0,0,324.23,142.43Zm40.59-28.79h4.48a50.57,50.57,0,0,1-50,49.78v-4.48A46.09,46.09,0,0,0,364.82,113.64Zm0-1.2a46.08,46.08,0,0,0-45.4-45.58V62.37a50.58,50.58,0,0,1,49.88,50.07ZM318.24,82.88a29.86,29.86,0,0,0-4.85.49l-1.59-8.14-1.18.23,1.6,8.15A29.43,29.43,0,0,0,307.74,85l-4.25-10.34-1.11.46,4.25,10.35a29.66,29.66,0,0,0-4.11,2.24L298,80.83l-1,.66,4.57,6.88a31.28,31.28,0,0,0-3.6,3L290,83.43l-.85.85,7.9,7.94a30.26,30.26,0,0,0-3,3.63l-6.84-4.59-.67,1,6.85,4.61a29.77,29.77,0,0,0-2.2,4.14L281,96.69l-.46,1.11,10.32,4.31a29.78,29.78,0,0,0-1.34,4.49L281.4,105l-.24,1.17,8.08,1.63a31.26,31.26,0,0,0-.42,4.36H274a44.87,44.87,0,0,1,44.23-44.08Zm-29.43,30.46a30.23,30.23,0,0,0,.49,5l-8.2,1.61.24,1.18,8.2-1.61a29.82,29.82,0,0,0,1.39,4.48l-10.34,4.25.46,1.11,10.34-4.26a29.77,29.77,0,0,0,2.24,4.12l-6.87,4.57.67,1,6.87-4.58a30.56,30.56,0,0,0,3,3.61l-7.94,7.9.85.85,7.94-7.91a29.49,29.49,0,0,0,3.63,3l-4.6,6.85,1,.67,4.6-6.86a29.28,29.28,0,0,0,4.14,2.2l-4.3,10.32,1.11.46,4.3-10.33a29.81,29.81,0,0,0,4.49,1.35l-1.72,8.53L312,151l1.72-8.55a29.82,29.82,0,0,0,4.36.43l.06,14.82A44.87,44.87,0,0,1,274,113.34Zm29.38,60.86a166.77,166.77,0,0,0-16.63-12.54,51.52,51.52,0,0,0,16.59,3Zm0,252.4A164.47,164.47,0,0,1,257.32,460a9.42,9.42,0,0,0-18.39,2.89,9.76,9.76,0,0,0,.12,1.44,167.75,167.75,0,0,1-28.45,2.53V446a144.24,144.24,0,0,0,100.86-41.65l1.79,1.79a17.24,17.24,0,0,1,5,12.13ZM290,489.84a28.81,28.81,0,1,1,28.81,28.83A28.85,28.85,0,0,1,290,489.84Zm33.92,29.59,1.63,8.08,1.18-.23-1.63-8.08a29.78,29.78,0,0,0,4.49-1.34l4.31,10.33,1.1-.46-4.3-10.32a29.77,29.77,0,0,0,4.14-2.2l4.6,6.86,1-.67-4.6-6.85a29.49,29.49,0,0,0,3.63-3l7.94,7.9.85-.85-7.93-7.89a29.53,29.53,0,0,0,3-3.61l6.88,4.57.66-1L344,506.15a29.77,29.77,0,0,0,2.24-4.12l10.35,4.26.45-1.11-10.33-4.26a29.09,29.09,0,0,0,1.38-4.48l8.15,1.6.23-1.18-8.14-1.59a29.3,29.3,0,0,0,.49-5l15.08,0A45.15,45.15,0,0,1,319.43,535V519.86A30,30,0,0,0,323.92,519.43Zm24.88-30.34a29.81,29.81,0,0,0-.42-4.36l8.08-1.63-.24-1.17-8.06,1.62a29.81,29.81,0,0,0-1.35-4.49l10.32-4.31-.46-1.11L346.36,478a29.83,29.83,0,0,0-2.19-4.15l6.85-4.6-.67-1-6.85,4.6a30.36,30.36,0,0,0-2.95-3.63l7.89-7.95-.85-.84-7.89,7.93a30.37,30.37,0,0,0-3.6-3l4.57-6.88-1-.67-4.56,6.88a30.36,30.36,0,0,0-4.12-2.24l4.25-10.35-1.11-.46-4.25,10.34a30.51,30.51,0,0,0-4.47-1.39l1.59-8.09-1.18-.23-1.59,8.08a30.22,30.22,0,0,0-5-.48l.06-15.09a45.14,45.14,0,0,1,44.56,44.36Zm-30.74-29.26a29.82,29.82,0,0,0-4.36.43L312,451.71l-1.18.24,1.72,8.53a29.81,29.81,0,0,0-4.49,1.35l-4.3-10.33-1.11.46,4.3,10.32a29.28,29.28,0,0,0-4.14,2.2l-4.6-6.86-1,.67,4.6,6.85a29.49,29.49,0,0,0-3.63,3l-7.94-7.91-.85.85,7.94,7.9a30.56,30.56,0,0,0-3,3.61L287.43,468l-.67,1,6.87,4.57a29.77,29.77,0,0,0-2.24,4.12l-10.34-4.26-.46,1.11,10.34,4.25a29.82,29.82,0,0,0-1.39,4.48l-8.2-1.61-.24,1.18,8.2,1.61a30.34,30.34,0,0,0-.49,5H273.73a45.16,45.16,0,0,1,44.39-44.66ZM288.82,490.6a31.26,31.26,0,0,0,.42,4.36l-8.08,1.63.24,1.17,8.07-1.62a29.78,29.78,0,0,0,1.34,4.49l-10.32,4.31.46,1.11,10.31-4.31a29.77,29.77,0,0,0,2.2,4.14l-6.85,4.61.67,1,6.84-4.59a30.26,30.26,0,0,0,3,3.63l-7.9,7.94.85.85,7.89-7.94a31.28,31.28,0,0,0,3.6,3L297,521.25l1,.66,4.57-6.87a29.66,29.66,0,0,0,4.11,2.24l-4.25,10.35,1.11.46,4.25-10.34a29.43,29.43,0,0,0,4.48,1.38l-1.6,8.15,1.18.23,1.59-8.14a29.86,29.86,0,0,0,4.85.49V535a45.15,45.15,0,0,1-44.49-44.35Zm30.61,45.55a46.35,46.35,0,0,0,45.66-45.85h4.51a50.87,50.87,0,0,1-50.17,50.36Zm45.65-47a46.34,46.34,0,0,0-45.75-45.56l0-4.51a50.84,50.84,0,0,1,50.24,50.07Zm-46.93-51.27a51.65,51.65,0,0,0-16.7,3,163.58,163.58,0,0,0,16.74-12.61Zm-61.57,25.06a8.23,8.23,0,1,1-8.23-8.23A8.24,8.24,0,0,1,256.58,462.89ZM116.49,301.2a93.29,93.29,0,0,1,27.18-65.89h0l.85-.85h0a93.29,93.29,0,0,1,131,0h0l.85.85h0a93.52,93.52,0,1,1-159.84,65.9Zm159.84-67.59q-2.13-2.1-4.38-4.06l3-3.56q2.38,2.08,4.65,4.3Zm-5.3-4.83q-2.38-2-4.89-3.87l2.75-3.79q2.66,2,5.18,4.1Zm-5.86-4.58q-2.54-1.81-5.18-3.47l2.44-4c1.87,1.16,3.71,2.39,5.49,3.67Zm-6.2-4.1q-2.67-1.62-5.44-3.06l2.13-4.17c2,1,3.88,2.09,5.76,3.23Zm-6.51-3.6q-2.78-1.41-5.66-2.63l1.8-4.33q3,1.29,6,2.78Zm-6.77-3.09c-1.92-.78-3.87-1.51-5.85-2.16l1.45-4.46c2.1.7,4.16,1.46,6.2,2.3Zm-7-2.54q-3-.94-6-1.69l1.09-4.56q3.22.8,6.36,1.8Zm-7.17-2q-3-.7-6.12-1.21l.74-4.62q3.27.52,6.48,1.28Zm-7.3-1.4c-2-.31-4.11-.55-6.2-.72l.37-4.67q3.32.27,6.56.76Zm-7.39-.82q-3.09-.22-6.24-.24v-4.69c2.22,0,4.42.1,6.6.26Zm-7.44-.24q-3.14,0-6.23.24L202.8,202c2.18-.16,4.39-.24,6.6-.26Zm-7.43.34c-2.08.17-4.15.41-6.19.72l-.73-4.63q3.24-.5,6.56-.76Zm-7.38.91q-3.09.51-6.12,1.21l-1.09-4.55q3.21-.75,6.48-1.28Zm-7.28,1.5q-3,.75-6,1.69l-1.44-4.45q3.13-1,6.36-1.8Zm-7.15,2.07c-2,.65-3.93,1.38-5.85,2.16l-1.79-4.32c2-.84,4.1-1.6,6.2-2.3Zm-7,2.62c-1.92.81-3.8,1.69-5.65,2.62l-2.13-4.17q2.94-1.48,6-2.78ZM166.48,217c-1.85,1-3.67,2-5.44,3.06l-2.45-4q2.82-1.71,5.76-3.23ZM160,220.73q-2.66,1.65-5.18,3.47l-2.75-3.79c1.78-1.28,3.61-2.51,5.48-3.67Zm-6.15,4.18q-2.51,1.86-4.89,3.87l-3-3.56q2.52-2.13,5.18-4.1Zm-5.81,4.64c-1.5,1.31-3,2.67-4.39,4.06l-3.3-3.31c1.51-1.48,3-2.92,4.65-4.31ZM210.6,396q3.15,0,6.24-.25l.36,4.68c-2.18.15-4.38.24-6.6.25Zm7.43-.34c2.09-.18,4.15-.42,6.2-.73l.73,4.63q-3.24.5-6.56.77Zm7.38-.92q3.1-.51,6.12-1.21l1.1,4.56c-2.14.5-4.3.92-6.48,1.28Zm7.29-1.49q3-.75,6-1.7l1.45,4.46c-2.09.67-4.21,1.26-6.36,1.79Zm7.14-2.07q3-1,5.85-2.17l1.8,4.33c-2,.83-4.1,1.6-6.2,2.3Zm7-2.62q2.88-1.23,5.66-2.63l2.13,4.18c-2,1-4,1.92-6,2.78Zm6.73-3.18c1.85-1,3.66-2,5.44-3.05l2.45,4c-1.88,1.14-3.81,2.22-5.76,3.24Zm6.46-3.68c1.76-1.11,3.49-2.26,5.18-3.48l2.75,3.79c-1.78,1.29-3.62,2.51-5.49,3.68Zm6.15-4.18q2.5-1.86,4.89-3.87l3,3.56q-2.52,2.13-5.18,4.1Zm5.81-4.65c1.44-1.25,2.84-2.55,4.2-3.88l3.31,3.31q-2.18,2.13-4.47,4.13ZM143.85,369q2.06,2,4.21,3.89l-3,3.56c-1.53-1.33-3-2.71-4.48-4.13Zm5.13,4.67q2.39,2,4.89,3.87l-2.75,3.78c-1.77-1.3-3.5-2.67-5.18-4.09Zm5.86,4.57c1.68,1.22,3.41,2.37,5.18,3.48l-2.45,4c-1.87-1.17-3.7-2.39-5.48-3.68Zm6.2,4.11c1.77,1.08,3.59,2.09,5.44,3.05l-2.13,4.18q-2.94-1.53-5.76-3.24Zm6.51,3.6q2.77,1.39,5.65,2.63l-1.79,4.33c-2-.86-4-1.8-6-2.78Zm6.76,3.08q2.88,1.18,5.85,2.17l-1.44,4.46q-3.15-1-6.2-2.3Zm7,2.54q3,.94,6,1.7l-1.1,4.55c-2.14-.53-4.26-1.12-6.35-1.79Zm7.16,2q3,.71,6.12,1.21l-.73,4.63c-2.18-.36-4.35-.78-6.48-1.28Zm7.31,1.4c2,.31,4.11.55,6.19.73l-.36,4.67q-3.31-.27-6.56-.77Zm7.39.82q3.09.22,6.23.25v4.68c-2.21,0-4.42-.1-6.6-.25Zm7.43,6.13c2.25,0,4.49-.1,6.7-.26l1.57,20,1.19-.1-1.57-19.94q3.36-.28,6.66-.78L230,431.25l1.19-.19-4.84-30.53c2.22-.37,4.41-.8,6.58-1.31l4.67,19.47,1.16-.28-4.67-19.47c2.18-.54,4.33-1.14,6.45-1.82l9.55,29.4,1.14-.37-9.55-29.4q3.19-1.06,6.28-2.33l7.67,18.51,1.11-.46L249.05,394c2.07-.87,4.09-1.81,6.08-2.82l14,27.57,1.07-.55-14-27.56c2-1,3.94-2.13,5.84-3.28l10.47,17.09,1-.63-10.47-17.1q2.85-1.77,5.56-3.73L286.81,408l1-.71-18.19-25q2.7-2,5.26-4.16l13,15.25.92-.78-13-15.24c1.56-1.35,3.07-2.76,4.55-4.2l26.15,26.22a137.14,137.14,0,0,1-95.86,39.57ZM277,368.12q2.39-2.39,4.59-4.94l3.56,3c-1.55,1.79-3.17,3.53-4.84,5.21Zm5.37-5.86q2-2.38,3.87-4.89l3.78,2.75q-2,2.65-4.09,5.18ZM287,356.4q1.82-2.53,3.47-5.19l4,2.45c-1.16,1.87-2.39,3.7-3.67,5.49Zm4.11-6.21c1.07-1.77,2.09-3.59,3.05-5.44l4.17,2.13c-1,2-2.09,3.88-3.23,5.76Zm3.59-6.51q1.41-2.78,2.63-5.67l4.35,1.75c-.87,2.05-1.81,4.07-2.8,6.05Zm3.09-6.78c.78-1.92,1.5-3.86,2.16-5.84l4.45,1.44q-1,3.12-2.27,6.15Zm2.53-7q.94-3,1.7-6l4.55,1.09q-.79,3.22-1.79,6.36Zm2-7.17q.71-3,1.21-6.12l4.63.73q-.54,3.28-1.29,6.48Zm1.4-7.31q.47-3.06.73-6.2l4.67.37c-.19,2.21-.44,4.4-.77,6.57Zm.82-7.39q.22-3.1.24-6.24h4.69c0,2.22-.1,4.42-.26,6.6Zm.24-7.44q0-3.15-.24-6.24l4.67-.37c.16,2.19.24,4.39.26,6.61Zm-.33-7.44q-.27-3.12-.73-6.2l4.63-.73c.33,2.17.58,4.36.77,6.57Zm-.92-7.38q-.51-3.11-1.21-6.13l4.55-1.09q.75,3.21,1.29,6.49ZM302,278.49q-.75-3-1.7-6l4.46-1.45c.66,2.09,1.26,4.22,1.79,6.36Zm-2.07-7.15q-1-3-2.16-5.85l4.35-1.73c.82,2,1.58,4.06,2.26,6.13Zm-2.62-7q-1.21-2.88-2.63-5.67l4.18-2.12c1,2,1.94,4,2.8,6.06Zm-3.17-6.74q-1.44-2.77-3.05-5.44l4-2.45c1.14,1.89,2.21,3.81,3.23,5.77Zm-3.69-6.46q-1.65-2.64-3.47-5.18l3.79-2.75c1.28,1.78,2.51,3.61,3.67,5.49ZM286.25,245q-1.86-2.52-3.87-4.9l3.56-3q2.13,2.52,4.09,5.19Zm-4.65-5.81q-2.13-2.46-4.42-4.77l3.31-3.31q2.42,2.43,4.67,5Zm-1.12-9.78c-1.53-1.5-3.1-3-4.72-4.36l13-15.25-.92-.77-13,15.24q-2.57-2.16-5.26-4.15l18.19-25.05-1-.7-18.19,25q-2.72-2-5.56-3.73l10.47-17.09-1-.63L262,215.08q-2.85-1.74-5.84-3.28l14-27.57-1.07-.54-14,27.56c-2-1-4-1.95-6.08-2.82l7.7-18.6-1.1-.46L247.94,208q-3.09-1.28-6.28-2.33l9.55-29.41-1.14-.37-9.55,29.41q-3.18-1-6.45-1.82L239,183.12l-1.17-.28-4.87,20.33q-3.25-.76-6.58-1.3l4.84-30.54-1.19-.19-4.83,30.54c-2.2-.34-4.42-.59-6.66-.78l1.57-20-1.19-.09L217.3,200.8c-2.21-.16-4.45-.24-6.7-.26v-37a137.12,137.12,0,0,1,96,39.74Zm-71.08-28.9c-2.25,0-4.48.1-6.69.26l-1.57-19.94-1.2.09,1.57,20c-2.24.19-4.46.44-6.65.78L190,171.14l-1.19.19,4.83,30.54q-3.31.54-6.57,1.3l-4.67-19.46-1.17.28,4.68,19.47q-3.27.79-6.45,1.82l-9.55-29.41-1.14.37,9.55,29.41c-2.13.71-4.23,1.48-6.29,2.33l-7.66-18.52-1.11.46L171,208.43c-2.06.87-4.08,1.82-6.07,2.82l-14-27.56-1.07.54,14,27.57q-3,1.55-5.84,3.28L147.5,198l-1,.63L157,215.71q-2.85,1.78-5.57,3.73l-18.18-25-1,.7,18.18,25.05c-1.79,1.33-3.55,2.71-5.25,4.15l-13-15.24-.91.77,13,15.25q-2.43,2.1-4.72,4.37l-26.15-26.22a137.15,137.15,0,0,1,96-39.74Zm-66.58,33.92c-1.52,1.53-3,3.12-4.42,4.76l-3.56-3c1.5-1.74,3.06-3.41,4.68-5Zm-5.19,5.67q-2,2.38-3.87,4.9L130,242.28c1.3-1.78,2.67-3.51,4.09-5.19ZM133.05,246q-1.81,2.53-3.46,5.18l-4-2.44c1.17-1.88,2.39-3.71,3.68-5.49Zm-4.1,6.2q-1.6,2.67-3,5.44l-4.17-2.12q1.51-2.94,3.23-5.77Zm-3.6,6.51q-1.39,2.79-2.63,5.67l-4.35-1.72c.87-2.06,1.81-4.09,2.81-6.07Zm-3.08,6.78c-.78,1.92-1.51,3.87-2.16,5.85l-4.46-1.45q1-3.11,2.27-6.12Zm-2.53,7q-.94,3-1.7,6l-4.55-1.09c.53-2.15,1.13-4.28,1.79-6.37Zm-2,7.17q-.7,3-1.21,6.13l-4.63-.73c.36-2.19.78-4.35,1.28-6.49ZM116.35,287q-.45,3.07-.72,6.2L111,292.8c.19-2.21.44-4.4.77-6.57Zm-.82,7.4q-.21,3.09-.24,6.24h-4.68q0-3.33.26-6.61Zm-.24,7.44q0,3.13.24,6.24l-4.66.36q-.24-3.27-.26-6.6Zm.34,7.43c.18,2.09.41,4.16.72,6.2l-4.62.73c-.33-2.16-.58-4.35-.77-6.56Zm.92,7.39q.51,3.09,1.21,6.12l-4.56,1.09c-.5-2.13-.92-4.29-1.28-6.48Zm1.49,7.29q.75,3,1.7,6l-4.46,1.45q-1-3.14-1.79-6.36Zm2.07,7.15c.65,2,1.38,3.92,2.16,5.84l-4.35,1.74q-1.23-3-2.27-6.14Zm2.61,6.95q1.23,2.89,2.63,5.67l-4.17,2.13c-1-2-1.94-4-2.8-6.06Zm3.18,6.74c1,1.85,2,3.67,3,5.44l-4,2.45q-1.71-2.82-3.23-5.76Zm3.69,6.46q1.65,2.66,3.46,5.19l-3.78,2.75c-1.29-1.79-2.51-3.62-3.68-5.49Zm4.17,6.16q1.86,2.5,3.87,4.89l-3.56,3c-1.42-1.68-2.79-3.41-4.09-5.18Zm4.64,5.81c1.47,1.7,3,3.34,4.59,4.93l-3.3,3.32c-1.68-1.68-3.29-3.42-4.85-5.21Zm1.3,9.94q2.2,2.16,4.54,4.2l-13,15.24.91.78,13-15.25c1.7,1.44,3.46,2.83,5.25,4.16l-18.18,25,1,.71L151.38,383q2.72,2,5.57,3.73l-10.47,17.1,1,.63L158,387.32c1.9,1.15,3.85,2.25,5.84,3.28l-14,27.56,1.07.55,14-27.57q3,1.51,6.07,2.82l-7.66,18.51,1.11.46,7.66-18.51q3.09,1.26,6.29,2.33l-9.55,29.4,1.14.37,9.55-29.4c2.12.68,4.27,1.28,6.45,1.82l-4.68,19.47,1.17.28,4.67-19.47c2.17.51,4.36.94,6.57,1.31l-4.83,30.53,1.19.19,4.83-30.53q3.28.5,6.65.78l-1.57,20,1.2.09,1.57-20q3.31.24,6.69.26v37.06a137.1,137.1,0,0,1-95.85-39.58Zm70.9,67a138.37,138.37,0,0,0,96.71-39.92l3.3,3.31a143,143,0,0,1-100,41.3Zm70.56-67.83q2.55-2.55,4.92-5.28l15.23,13,.78-.91-15.24-13c1.44-1.7,2.83-3.46,4.15-5.26L316,379l.7-1-25-18.2q1.95-2.72,3.73-5.56l17.08,10.47.63-1-17.08-10.47q1.74-2.86,3.28-5.85l27.55,14.05.54-1.07-27.54-14q1.52-3,2.84-6.14L337.11,354a138.29,138.29,0,0,1-29.79,44.49Zm22-33.18q1.24-3.08,2.3-6.22l29.38,9.55.37-1.14-29.38-9.56q1-3.18,1.82-6.45L327.15,330l.28-1.17L308,324.11c.51-2.16.94-4.36,1.3-6.57l30.52,4.83.19-1.18-30.52-4.84c.34-2.19.59-4.42.78-6.66l19.94,1.57.09-1.19-19.93-1.57c.16-2.22.24-4.45.26-6.7h37a137,137,0,0,1-10.07,51.1Zm7.4-38.5c0-2.25-.1-4.49-.26-6.7l19.93-1.57-.09-1.2-19.94,1.57c-.19-2.24-.44-4.46-.78-6.66L340,281.21l-.19-1.19-30.52,4.84q-.54-3.33-1.3-6.58l19.45-4.67-.28-1.17-19.45,4.67c-.54-2.17-1.15-4.33-1.82-6.45l29.38-9.55-.37-1.14-29.38,9.55c-.7-2.1-1.47-4.16-2.3-6.2l34.42-13.68a137.11,137.11,0,0,1,10,51Zm-7.85-38.39c-.88-2.09-1.84-4.15-2.85-6.17l27.54-14-.54-1.07-27.55,14q-1.55-3-3.28-5.84l17.08-10.47-.63-1-17.08,10.48q-1.79-2.85-3.73-5.57l25-18.2-.7-1-25,18.2c-1.32-1.8-2.71-3.55-4.15-5.26l15.24-13-.78-.91-15.23,13q-2.29-2.64-4.74-5.11l26.15-26.22a138.4,138.4,0,0,1,29.68,44.46Zm4.73-59.83a138.31,138.31,0,0,0-96.88-40.09V157.6a143,143,0,0,1,100.19,41.46ZM209.4,162.29a138.35,138.35,0,0,0-96.88,40.09l-3.3-3.31A143,143,0,0,1,209.4,157.6Zm-70.73,68q-2.46,2.47-4.74,5.11l-15.23-13-.78.91,15.24,13c-1.44,1.71-2.83,3.46-4.15,5.26l-25-18.2-.7,1,25,18.2c-1.3,1.81-2.55,3.67-3.73,5.57l-17.08-10.48-.63,1,17.08,10.47c-1.16,1.9-2.25,3.86-3.28,5.84l-27.55-14L92.56,242l27.55,14q-1.53,3-2.85,6.18L82.82,248.57a138.3,138.3,0,0,1,29.7-44.5Zm-21.87,33q-1.24,3-2.29,6.19L85.13,260l-.38,1.14,29.39,9.55c-.68,2.12-1.28,4.28-1.82,6.45l-19.46-4.67-.28,1.17L112,278.28q-.77,3.25-1.3,6.58L80.22,280,80,281.21,110.54,286q-.5,3.3-.77,6.66l-19.94-1.57-.09,1.2,19.93,1.57c-.16,2.21-.25,4.45-.26,6.7h-37a136.84,136.84,0,0,1,10-50.91ZM78.5,301.8h30.91q0,3.38.26,6.7l-19.93,1.57.09,1.19,19.94-1.57c.18,2.24.44,4.47.77,6.66L80,321.19l.19,1.18,30.52-4.83c.36,2.21.79,4.41,1.3,6.57l-19.46,4.68.28,1.17,19.46-4.68c.54,2.18,1.14,4.33,1.82,6.45l-29.39,9.56.38,1.14,29.38-9.56q1,3.17,2.3,6.22L82.42,352.85a137,137,0,0,1-10-51.05Zm38.76,38.4c.88,2.09,1.84,4.14,2.85,6.15l-27.55,14,.55,1.07,27.55-14.05q1.55,3,3.28,5.85l-17.08,10.47.63,1,17.08-10.47c1.18,1.9,2.43,3.75,3.73,5.56l-25,18.2.7,1,25-18.2c1.32,1.8,2.71,3.56,4.15,5.26l-15.24,13,.78.92,15.23-13c1.58,1.82,3.21,3.58,4.91,5.28L112.69,398.5A138.13,138.13,0,0,1,82.88,354Zm-4.56,60a138.33,138.33,0,0,0,96.7,39.93v4.69a143,143,0,0,1-100-41.3Zm195.46-.83a139.13,139.13,0,0,0,30.06-44.9l4.35,1.75a144,144,0,0,1-31.1,46.46Zm30.52-46a138.31,138.31,0,0,0,10.15-51.54h4.68A142.77,142.77,0,0,1,343,355.09Zm10.15-52.74a138.47,138.47,0,0,0-10.09-51.41l4.35-1.73a142.78,142.78,0,0,1,10.42,53.14Zm-10.55-52.52a139.47,139.47,0,0,0-29.95-44.86l3.31-3.31a144,144,0,0,1,31,46.44ZM111.67,203.23a139.42,139.42,0,0,0-30,44.9l-4.35-1.72a144.17,144.17,0,0,1,31-46.5Zm-30.42,46A138.23,138.23,0,0,0,71.18,300.6H66.49A142.9,142.9,0,0,1,76.9,247.52ZM71.18,301.8a138.07,138.07,0,0,0,10.13,51.49L77,355A142.84,142.84,0,0,1,66.49,301.8Zm10.58,52.6a139.25,139.25,0,0,0,30.08,44.94l-3.31,3.32a144,144,0,0,1-31.11-46.52Zm98,108.49a8.23,8.23,0,1,1-8.23-8.23A8.24,8.24,0,0,1,179.76,462.89Zm-77.95-34.7A164.46,164.46,0,0,0,118.4,440.7a51.85,51.85,0,0,0-16.55-2.92ZM130,489.84A28.81,28.81,0,1,1,101.19,461,28.85,28.85,0,0,1,130,489.84ZM95.77,460.31l-1.59-8.08-1.18.23,1.59,8.09a30.51,30.51,0,0,0-4.47,1.39L85.87,451.6l-1.11.46L89,462.41a30.36,30.36,0,0,0-4.12,2.24l-4.56-6.88-1,.67,4.57,6.88a30.37,30.37,0,0,0-3.6,3l-7.89-7.93-.85.84,7.89,7.95a30.36,30.36,0,0,0-3,3.63l-6.85-4.6-.67,1,6.85,4.6A29.83,29.83,0,0,0,73.64,478l-10.31-4.31-.46,1.11,10.32,4.31a29.81,29.81,0,0,0-1.35,4.49l-8.06-1.62-.24,1.17,8.08,1.63a29.81,29.81,0,0,0-.42,4.36H56.08a45.17,45.17,0,0,1,44.6-44.4l.06,15.13A30.22,30.22,0,0,0,95.77,460.31Zm-24.58,30a29.3,29.3,0,0,0,.49,5l-8.14,1.59.23,1.18,8.15-1.6a29.09,29.09,0,0,0,1.38,4.48L63,505.18l.45,1.11L73.77,502A29.77,29.77,0,0,0,76,506.15l-6.87,4.56.66,1,6.88-4.57a29.53,29.53,0,0,0,3,3.61l-7.93,7.89.85.85,7.94-7.9a29.49,29.49,0,0,0,3.63,3l-4.6,6.85,1,.67,4.6-6.86a29.77,29.77,0,0,0,4.14,2.2L85,527.73l1.1.46,4.31-10.33a29.78,29.78,0,0,0,4.49,1.34l-1.63,8.08,1.18.23,1.63-8.08a30,30,0,0,0,4.48.43V535a45.18,45.18,0,0,1-44.5-44.69Zm30.57,29.58a29.86,29.86,0,0,0,4.85-.49l1.59,8.14,1.18-.23-1.6-8.15a29.43,29.43,0,0,0,4.48-1.38l4.25,10.34,1.11-.46-4.25-10.35a29.66,29.66,0,0,0,4.11-2.24l4.57,6.87,1-.66-4.57-6.88a31.28,31.28,0,0,0,3.6-3l7.89,7.94.85-.85-7.9-7.94a30.26,30.26,0,0,0,3-3.63l6.84,4.59.67-1-6.85-4.61a29.77,29.77,0,0,0,2.2-4.14l10.31,4.31.46-1.11-10.32-4.31a29.78,29.78,0,0,0,1.34-4.49l8.07,1.62.24-1.17L130.76,495a31.26,31.26,0,0,0,.42-4.36H146.3A45.18,45.18,0,0,1,101.77,535Zm29.43-30.46a30.34,30.34,0,0,0-.49-5l8.2-1.61-.24-1.18-8.2,1.61a29.82,29.82,0,0,0-1.39-4.48l10.34-4.25L139,473.4l-10.34,4.26a29.77,29.77,0,0,0-2.24-4.12l6.87-4.57-.67-1-6.87,4.58a30.56,30.56,0,0,0-3-3.61l7.94-7.9-.85-.85-7.94,7.91a29.49,29.49,0,0,0-3.63-3l4.6-6.85-1-.67-4.6,6.86a29.28,29.28,0,0,0-4.14-2.2l4.3-10.32-1.11-.46L112,461.83a29.81,29.81,0,0,0-4.49-1.35L109.2,452l-1.18-.24-1.72,8.55a29.82,29.82,0,0,0-4.36-.43l-.06-15.13a45.18,45.18,0,0,1,44.43,44.7Zm-30.52-45.9a46.37,46.37,0,0,0-45.79,45.6H50.36A50.9,50.9,0,0,1,100.65,439Zm-45.8,46.8a46.39,46.39,0,0,0,45.7,45.89v4.52A50.91,50.91,0,0,1,50.35,490.3Zm46.9,45.89a46.38,46.38,0,0,0,45.73-45.6H152a50.91,50.91,0,0,1-50.25,50.12Zm45.74-46.79a46.4,46.4,0,0,0-45.64-45.9l0-4.52A50.91,50.91,0,0,1,152,489.39ZM318.15,439l0,4.51a46.35,46.35,0,0,0-45.6,45.86H268A50.87,50.87,0,0,1,318.15,439Zm-45.61,51.56a46.35,46.35,0,0,0,45.69,45.56v4.51A50.86,50.86,0,0,1,268,490.59Zm110.39-1.48H370.79a52.05,52.05,0,0,0-51.44-51.27l0-10.67a169.39,169.39,0,0,0,18.51-18.88,15.18,15.18,0,0,0,8.86,2.85,15.31,15.31,0,0,0,8.56-28,165.86,165.86,0,0,0,8.85-18.25l18.75,7.53Zm-22.05-93.29a14.11,14.11,0,1,1-14.11-14.11A14.13,14.13,0,0,1,360.88,395.82ZM354.3,382.5A15.3,15.3,0,0,0,337,407.55a166.94,166.94,0,0,1-17.55,18l0-7.29a18.41,18.41,0,0,0-5.35-13l-1.77-1.78a145.45,145.45,0,0,0,31.36-46.86l19.38,7.78A160.84,160.84,0,0,1,354.3,382.5Zm-10.16-27a144.09,144.09,0,0,0,10.57-53.74h20.83c0,.28,0,.57,0,.85a166.32,166.32,0,0,1-12,60.67Zm31.4-54.94H354.71A143.85,143.85,0,0,0,344.2,247l19.41-7.72A166.16,166.16,0,0,1,375.56,300C375.55,300.18,375.55,300.39,375.54,300.6Zm-31.79-54.69a145.29,145.29,0,0,0-31.26-46.85l1.6-1.61a18.41,18.41,0,0,0,5.35-13l0-7.64a166.82,166.82,0,0,1,17.72,18.22,15.3,15.3,0,0,0,17.32,25.11,165.38,165.38,0,0,1,8.73,18Zm3-24.87a14.12,14.12,0,1,1,14.11-14.12A14.13,14.13,0,0,1,346.77,221Zm8.69-1.52a15.31,15.31,0,0,0-8.69-27.91,15.13,15.13,0,0,0-8.68,2.72,169.5,169.5,0,0,0-18.69-19.09l0-10.62a51.77,51.77,0,0,0,51.15-51h12.43v116.7l-18.65,7.42A165.35,165.35,0,0,0,355.46,219.52Zm28.67,47.13H400.6v4.69H384.13Zm0-1.2v-4.68H400.6v4.68Zm0-5.88v-4.69H400.6v4.69Zm0-5.89V249h16.46v4.68Zm0-5.88v-4.69h16.46v4.69Zm0-5.89v-4.69h16.46v4.69Zm0-5.89v-4.68h16.46V236Zm0-5.88v-4.69h16.46v4.69Zm0-5.89v-4.68h16.46v4.68Zm0-5.88v-4.69h16.46v4.69Zm0-5.89v-4.69h16.46v4.69Zm0-5.89v-4.68h16.46v4.68Zm0-5.88V196h16.46v4.69Zm0-5.89v-4.68h16.46v4.68Zm0-5.88v-4.69h16.46v4.69Zm0-5.89v-4.68h16.46v4.68Zm0-5.88v-4.69h16.46v4.69Zm0-5.89v-4.69h16.46v4.69Zm0-5.89v-4.68h16.46v4.68Zm0-5.88v-4.69h16.46v4.69Zm0-5.89v-4.68h16.46v4.68Zm0-5.88v-4.69h16.46v4.69Zm0-5.89v-4.69h16.46v4.69Zm0-5.89v-4.68h16.46V136Zm0-5.88v-4.69h16.45v4.69Zm0-5.89v-4.68h16.45v4.68Zm0-5.88v-4.69h16.45v4.69Zm0-5.89v-4.69h16.45v4.69Zm0-5.89v-4.68h16.45v4.68Zm0-5.88V96h16.45v4.69Zm0-5.89V90.08h16.45v4.68Zm0-5.88V84.19h16.45v4.69Zm0-5.89V78.3h16.45V83Zm0-5.89V72.42h16.45V77.1Zm0-5.88V66.53h16.45v4.69Zm0-5.89V60.65h16.45v4.68Zm0-5.88V54.76h16.45v4.69Zm0-5.89V48.87h16.45v4.69Zm0-5.89V43h16.45v4.68Zm0-5.88V37.1h16.45v4.69Zm-1.2-5.89h-4.68V19.44h4.68Zm-5.88,0h-4.69V19.44h4.69Zm-5.89,0h-4.68V19.44h4.68Zm-5.88,0H360.6V19.44h4.68Zm-5.88,0h-4.68V19.44h4.68Zm-5.88,0h-4.68V19.44h4.68Zm-5.88,0H343V19.44h4.69Zm-5.89,0h-4.68V19.44h4.68Zm-5.88,0h-4.68V19.44h4.68Zm-5.88,0h-4.68V19.44H330Zm-5.88,0h-4.69V19.44h4.69Zm58.82,1.2v75.33H370.51a51.79,51.79,0,0,0-51.08-51.27l0-24.07Zm-64.7,29.76a46.08,46.08,0,0,0-45.43,45.29h-4.47a50.57,50.57,0,0,1,49.9-49.78ZM272.8,113.35a46.07,46.07,0,0,0,45.33,45.58v4.49a50.56,50.56,0,0,1-49.82-50.07Zm-62.8,21a21.53,21.53,0,1,1,21.51-21.52A21.54,21.54,0,0,1,210,134.32Zm-81.11,21q-2.37,1.32-4.68,2.72a50.38,50.38,0,0,1-22.36,5.54l0-4.5a46.24,46.24,0,0,0,45.49-45.74h4.49A50.7,50.7,0,0,1,128.89,155.33Zm18.46-43.18A46.24,46.24,0,0,0,101.77,66.7V62.2a50.74,50.74,0,0,1,50.08,50ZM100.57,61a51.94,51.94,0,0,0-51.25,51.44H37.07V37.1h63.52Zm0-25.1H95.89V19.44h4.69Zm-5.89,0H90V19.44h4.68Zm-5.88,0H84.13V19.44h4.68Zm-5.88,0H78.25V19.44h4.68Zm-5.88,0H72.36V19.44h4.69Zm-5.89,0H66.48V19.44h4.68Zm-5.88,0H60.6V19.44h4.68Zm-5.88,0H54.72V19.44H59.4Zm-5.88,0H48.84V19.44h4.68Zm-5.88,0H43V19.44h4.69Zm-5.89,0H37.07V19.44h4.68Zm-5.88,5.89H19.42V37.1H35.87Zm0,1.2v4.68H19.42V43Zm0,5.88v4.69H19.42V48.87Zm0,5.89v4.69H19.42V54.76Zm0,5.89v4.68H19.42V60.65Zm0,5.88v4.69H19.42V66.53Zm0,5.89V77.1H19.42V72.42Zm0,5.88V83H19.42V78.3Zm0,5.89v4.69H19.42V84.19Zm0,5.89v4.68H19.42V90.08Zm0,5.88v4.69H19.42V96Zm0,5.89v4.68H19.42v-4.68Zm0,5.88v4.69H19.42v-4.69Zm0,5.89v4.69H19.42v-4.69Zm0,5.89v4.68H19.42v-4.68Zm0,5.88v4.69H19.42v-4.69Zm0,5.89V136H19.41v-4.68Zm0,5.88v4.69H19.41v-4.69Zm0,5.89v4.69H19.41v-4.69Zm0,5.89v4.68H19.41v-4.68Zm0,5.88v4.69H19.41v-4.69Zm0,5.89v4.68H19.41v-4.68Zm0,5.88v4.69H19.41v-4.69Zm0,5.89v4.69H19.41v-4.69Zm0,5.89v4.68H19.41v-4.68Zm0,5.88v4.69H19.41v-4.69Zm0,5.89v4.68H19.41v-4.68Zm0,5.88v4.69H19.41V196Zm0,5.89v4.68H19.41v-4.68Zm0,5.88v4.69H19.41v-4.69Zm0,5.89v4.69H19.41v-4.69Zm0,5.89v4.68H19.41v-4.68Zm0,5.88v4.69H19.41v-4.69Zm0,5.89V236H19.41v-4.68Zm0,5.88v4.69H19.41v-4.69Zm0,5.89v4.69H19.41v-4.69Zm0,5.89v4.68H19.4V249Zm0,5.88v4.69H19.4v-4.69Zm0,5.89v4.68H19.4v-4.68Zm0,5.88v4.69H19.4v-4.69Zm1.2-153H49.33a51.93,51.93,0,0,0,51.32,51.15l-.05,10.46a169.32,169.32,0,0,0-18.68,19.08,15.3,15.3,0,1,0-17.38,25.19,164.88,164.88,0,0,0-8.84,18.31l-18.63-7.38Zm22,93.29A14.11,14.11,0,1,1,73.23,221,14.13,14.13,0,0,1,59.12,206.92Zm6.44,13.24a15.3,15.3,0,0,0,17.32-25.11,167.65,167.65,0,0,1,17.72-18.21l0,7.63a18.41,18.41,0,0,0,5.35,13l1.61,1.61A145.12,145.12,0,0,0,76.24,246l-19.43-7.7A164,164,0,0,1,65.56,220.16Zm10.22,26.92A144.13,144.13,0,0,0,65.29,300.6H44.46c0-.16,0-.31,0-.47a166.34,166.34,0,0,1,11.92-60.75ZM44.46,301.8H65.29a144,144,0,0,0,10.56,53.68l-19.4,7.76a166.29,166.29,0,0,1-12-60.78C44.46,302.24,44.46,302,44.46,301.8ZM76.3,356.59a145.36,145.36,0,0,0,31.39,46.92l-1.78,1.78a18.41,18.41,0,0,0-5.35,13l0,7.29a167.89,167.89,0,0,1-17.55-18,15.3,15.3,0,0,0-17.34-25.06,163.1,163.1,0,0,1-8.81-18.14Zm-3.07,25.12a14.12,14.12,0,1,1-14.11,14.11A14.12,14.12,0,0,1,73.23,381.71Zm-8.55,1.41A15.3,15.3,0,1,0,82.1,408.28a169.21,169.21,0,0,0,18.5,18.87l.05,10.63A52.1,52.1,0,0,0,49.16,489.1H37.07V372.29l18.72-7.49A166.25,166.25,0,0,0,64.68,383.12Zm-28.81-47H19.4V331.4H35.87Zm0,1.2V342H19.4v-4.68Zm0,5.88v4.69H19.4v-4.69Zm0,5.89v4.68H19.41v-4.68Zm0,5.88v4.69H19.41v-4.69Zm0,5.89v4.69H19.41v-4.69Zm0,5.89v4.68H19.41v-4.68Zm0,5.88v4.69H19.41V372.6Zm0,5.89v4.68H19.41v-4.68Zm0,5.88v4.69H19.41v-4.69Zm0,5.89V395H19.41v-4.69Zm0,5.88v4.69H19.41v-4.69Zm0,5.89v4.69H19.41V402Zm0,5.89v4.68H19.41v-4.68Zm0,5.88v4.69H19.41V413.8Zm0,5.89v4.69H19.41v-4.69Zm0,5.88v4.69H19.41v-4.69Zm0,5.89v4.69H19.41v-4.69Zm0,5.89V442H19.41v-4.68Zm0,5.88v4.69H19.41v-4.69Zm0,5.89v4.68H19.41v-4.68Zm0,5.88v4.69H19.41V455Zm0,5.89v4.69H19.41v-4.69Zm0,5.89v4.68H19.41v-4.68Zm0,5.88v4.69H19.42v-4.69Zm0,5.89v4.69H19.42v-4.69Zm0,5.88v4.69H19.42v-4.69Zm0,5.89V495H19.42v-4.69Zm0,5.89v4.68H19.42v-4.68Zm0,5.88v4.69H19.42v-4.69Zm0,5.89v4.69H19.42V508Zm0,5.88v4.69H19.42v-4.69Zm0,5.89v4.69H19.42v-4.69Zm0,5.89v4.68H19.42v-4.68Zm0,5.88v4.69H19.42v-4.69Zm0,5.89v4.68H19.42v-4.68Zm0,5.88V548H19.42v-4.69Zm0,5.89v4.69H19.42v-4.69Zm0,5.89v4.68H19.42v-4.68Zm0,5.88v4.69H19.42V561Zm1.2,5.89h4.68v16.59H37.07Zm5.88,0h4.69v16.59H43Zm5.89,0h4.68v16.59H48.84Zm5.88,0H59.4v16.59H54.72Zm5.88,0h4.68v16.59H60.6Zm5.88,0h4.68v16.59H66.48Zm5.88,0h4.69v16.59H72.36Zm5.89,0h4.68v16.59H78.25Zm5.88,0h4.68v16.59H84.13Zm5.88,0h4.68v16.59H90Zm5.88,0h4.69v16.59H95.89Zm5.89,0h4.68v16.59h-4.68Zm5.88,0h4.68v16.59h-4.68Zm5.88,0h4.68v16.59h-4.68Zm5.88,0h4.69v16.59h-4.69Zm5.89,0H130v16.59h-4.68Zm5.88,0h4.68v16.59h-4.68Zm5.88,0h4.68v16.59h-4.68Zm5.88,0h4.69v16.59H143Zm5.89,0h4.68v16.59h-4.68Zm5.88,0h4.68v16.59h-4.68Zm5.88,0h4.68v16.59H160.6Zm5.88,0h4.68v16.59h-4.68Zm5.88,0h4.69v16.59h-4.69Zm-.71-13.54a20,20,0,1,1,20-20A20,20,0,0,1,171.65,553.3Zm76.7,0a20,20,0,1,1,20-20A20,20,0,0,1,248.35,553.3Zm-11.28,13.54h4.68V583.4h-4.68Zm5.88,0h4.69V583.4H243Zm5.89,0h4.68V583.4h-4.68Zm5.88,0h4.68V583.4h-4.68Zm5.88,0h4.68V583.4H260.6Zm5.88,0h4.68V583.4h-4.68Zm5.88,0h4.69V583.4h-4.69Zm5.89,0h4.68V583.4h-4.68Zm5.88,0h4.68V583.4h-4.68Zm5.88,0h4.68V583.4H290Zm5.88,0h4.69V583.4h-4.69Zm5.89,0h4.68V583.4h-4.68Zm5.88,0h4.68V583.4h-4.68Zm5.88,0h4.68V583.4h-4.68Zm5.88,0h4.69V583.4h-4.69Zm5.89,0H330V583.4h-4.68Zm5.88,0h4.68V583.4h-4.68Zm5.88,0h4.68V583.4h-4.68Zm5.88,0h4.69V583.4H343Zm5.89,0h4.68V583.4h-4.68Zm5.88,0h4.68V583.4h-4.68Zm5.88,0h4.68V583.4H360.6Zm5.88,0h4.68V583.4h-4.68Zm5.88,0h4.69V583.4h-4.69Zm5.89,0h4.68V583.4h-4.68Zm5.88-5.89h16.45v4.69H384.13Zm0-1.2v-4.68h16.45v4.68Zm0-5.88v-4.69h16.45v4.69Zm0-5.89v-4.69h16.45V548Zm0-5.89v-4.68h16.45v4.68Zm0-5.88v-4.69h16.45v4.69Zm0-5.89v-4.68h16.45v4.68Zm0-5.88v-4.69h16.45v4.69Zm0-5.89v-4.69h16.45v4.69Zm0-5.88V508h16.45v4.69Zm0-5.89v-4.69h16.45v4.69Zm0-5.89v-4.68h16.45v4.68Zm0-5.88v-4.69h16.45V495Zm0-5.89v-4.69h16.45v4.69Zm0-5.88v-4.69h16.45v4.69Zm0-5.89v-4.69h16.45v4.69Zm0-5.89v-4.68h16.46v4.68Zm0-5.88v-4.69h16.46v4.69Zm0-5.89V455h16.46v4.69Zm0-5.89v-4.68h16.46v4.68Zm0-5.88v-4.69h16.46v4.69Zm0-5.89v-4.68h16.46V442Zm0-5.88v-4.69h16.46v4.69Zm0-5.89v-4.69h16.46v4.69Zm0-5.88v-4.69h16.46v4.69Zm0-5.89V413.8h16.46v4.69Zm0-5.89v-4.68h16.46v4.68Zm0-5.88V402h16.46v4.69Zm0-5.89v-4.69h16.46v4.69Zm0-5.88v-4.69h16.46V395Zm0-5.89v-4.69h16.46v4.69Zm0-5.89v-4.68h16.46v4.68Zm0-5.88V372.6h16.46v4.69Zm0-5.89v-4.68h16.46v4.68Zm0-5.88v-4.69h16.46v4.69Zm0-5.89v-4.69h16.46v4.69Zm0-5.89v-4.68H400.6v4.68Zm0-5.88v-4.69H400.6v4.69Zm0-5.89v-4.68H400.6V342Zm0-5.88V331.4H400.6v4.69ZM383,321.21h0v49.9l-18.29-7.34a167.34,167.34,0,0,0,11.93-54.58A30.52,30.52,0,0,0,383,321.21Zm-18.24-82.35,18.2-7.24v50a30.64,30.64,0,0,0-6.35,11.91A167.59,167.59,0,0,0,364.73,238.86Zm19.4,41.41v-7.73h12.42A30,30,0,0,0,384.13,280.27ZM400.58,24.73V35.9H384.13V19.44h11.16A5.3,5.3,0,0,1,400.58,24.73Zm-164.71-3V35.9h-4.68V30.56A26.62,26.62,0,0,0,235.87,21.76ZM230,32V35.9h-4.51A27.65,27.65,0,0,0,230,32Zm-6.41,5.13h24.06V48.27a21.12,21.12,0,1,0,1.2,0V37.1h69.37l0,24.07a51.78,51.78,0,0,0-51.11,51l-34.43,0a22.7,22.7,0,0,0-45.38,0l-34.26,0A51.94,51.94,0,0,0,101.77,61l0-23.9h69.37V48.26a21.26,21.26,0,1,0,1.2,0V37.1h24.07a27.13,27.13,0,0,0,27.15,0Zm24.77,12.34a20,20,0,1,1-20,20A20,20,0,0,1,248.35,49.44Zm-76.7,0a20,20,0,1,1-20,20A20,20,0,0,1,171.65,49.44ZM194.53,35.9H190V32A26.9,26.9,0,0,0,194.53,35.9Zm-5.72-5.35V35.9h-4.68V21.75A26.62,26.62,0,0,0,188.81,30.55ZM24.71,19.44H35.87V35.9H19.42V24.73A5.3,5.3,0,0,1,24.71,19.44Zm-1.26,253.1H35.87v7.73A30,30,0,0,0,23.45,272.54Zm13.62,9V231.74l18.18,7.2a167.59,167.59,0,0,0-11.83,54.58A30.43,30.43,0,0,0,37.07,281.58Zm18.27,82.11L37.07,371V321.21h0a30.69,30.69,0,0,0,6.41-12A167.33,167.33,0,0,0,55.34,363.69ZM35.87,322.47v7.73H23.45A30,30,0,0,0,35.87,322.47ZM19.42,578V566.84H35.87v16.59H24.71A5.42,5.42,0,0,1,19.42,578Zm164.71,2.4V566.84h4.68v5.22A26,26,0,0,0,184.13,580.41Zm5.88-9.7v-3.87h4.59A26.59,26.59,0,0,0,190,570.71Zm35.22-3.87H230v4.1A27.35,27.35,0,0,0,225.23,566.84Zm6,5.51v-5.51h4.68v14.28A26.47,26.47,0,0,0,231.19,572.35Zm164.1,11H384.13V566.84h16.45V578A5.35,5.35,0,0,1,395.29,583.4Z" style="fill: #00aeef"/>
    <path d="M337.35,395.82a9.43,9.43,0,1,0,9.42-9.43A9.44,9.44,0,0,0,337.35,395.82Zm17.65,0a8.23,8.23,0,1,1-8.23-8.23A8.24,8.24,0,0,1,355,395.82Z" style="fill: #00aeef"/>
    <path d="M73.23,405.25a9.43,9.43,0,1,0-9.43-9.43A9.44,9.44,0,0,0,73.23,405.25Zm0-17.66A8.23,8.23,0,1,1,65,395.82,8.23,8.23,0,0,1,73.23,387.59Z" style="fill: #00aeef"/>
    <path d="M346.77,197.49a9.43,9.43,0,1,0,9.43,9.43A9.44,9.44,0,0,0,346.77,197.49Zm0,17.66a8.23,8.23,0,1,1,8.23-8.23A8.23,8.23,0,0,1,346.77,215.15Z" style="fill: #00aeef"/>
    <path d="M82.65,206.92a9.43,9.43,0,1,0-9.42,9.43A9.44,9.44,0,0,0,82.65,206.92Zm-17.65,0a8.23,8.23,0,1,1,8.23,8.23A8.24,8.24,0,0,1,65,206.92Z" style="fill: #00aeef"/>
    <path d="M57.83,176.11a6.49,6.49,0,1,0-6.48-6.49A6.5,6.5,0,0,0,57.83,176.11Zm0-11.77a5.29,5.29,0,1,1-5.28,5.28A5.29,5.29,0,0,1,57.83,164.34Z" style="fill: #00aeef"/>
    <path d="M362.17,163.14a6.49,6.49,0,1,0,6.48,6.48A6.49,6.49,0,0,0,362.17,163.14Zm0,11.77a5.29,5.29,0,1,1,5.28-5.29A5.29,5.29,0,0,1,362.17,174.91Z" style="fill: #00aeef"/>
    <path d="M362.17,61.21a6.49,6.49,0,1,0-6.49-6.49A6.49,6.49,0,0,0,362.17,61.21Zm0-11.77a5.29,5.29,0,1,1-5.29,5.28A5.29,5.29,0,0,1,362.17,49.44Z" style="fill: #00aeef"/>
    <path d="M56.77,61.2a6.49,6.49,0,1,0-6.48-6.49A6.5,6.5,0,0,0,56.77,61.2Zm0-11.78a5.29,5.29,0,1,1-5.28,5.29A5.3,5.3,0,0,1,56.77,49.42Z" style="fill: #00aeef"/>
    <path d="M362.17,541.53a6.49,6.49,0,1,0,6.48,6.49A6.5,6.5,0,0,0,362.17,541.53Zm0,11.77a5.29,5.29,0,1,1,5.28-5.28A5.29,5.29,0,0,1,362.17,553.3Z" style="fill: #00aeef"/>
    <path d="M56.77,541.54A6.49,6.49,0,1,0,63.26,548,6.49,6.49,0,0,0,56.77,541.54Zm0,11.78A5.29,5.29,0,1,1,62.06,548,5.29,5.29,0,0,1,56.77,553.32Z" style="fill: #00aeef"/>
    <path d="M57.83,439.6a6.49,6.49,0,1,0-6.48-6.48A6.49,6.49,0,0,0,57.83,439.6Zm0-11.77a5.29,5.29,0,1,1-5.28,5.29A5.29,5.29,0,0,1,57.83,427.83Z" style="fill: #00aeef"/>
    <path d="M362.17,426.63a6.49,6.49,0,1,0,6.48,6.49A6.5,6.5,0,0,0,362.17,426.63Zm0,11.77a5.29,5.29,0,1,1,5.28-5.28A5.29,5.29,0,0,1,362.17,438.4Z" style="fill: #00aeef"/>
    <path d="M97.9,468.68a1.61,1.61,0,0,0-.82.9L85.91,502.63A1.77,1.77,0,0,0,87.58,505a1.65,1.65,0,0,0,.58-.1l33.21-11.31a1.5,1.5,0,0,0,.91-.83,1.55,1.55,0,0,0,0-1.23,44.32,44.32,0,0,0-23.16-22.84A1.57,1.57,0,0,0,97.9,468.68ZM87.78,503.75a.58.58,0,0,1-.6-.14A.56.56,0,0,1,87,503l9.53-28.17a38,38,0,0,1,19.54,19.25l-4.7,1.6a4.36,4.36,0,0,0,0-.52,3.54,3.54,0,1,0-6,2.55Zm17.8-8.57a2.34,2.34,0,1,1,4.68,0,2.39,2.39,0,0,1-.18.92l.07,0-3.32,1.13A2.35,2.35,0,0,1,105.58,495.18Zm15.6-3.18h0a.3.3,0,0,1,0,.25.35.35,0,0,1-.19.19l-3.74,1.27a39.15,39.15,0,0,0-20.3-20L98.22,470a.36.36,0,0,1,.17-.19.42.42,0,0,1,.14,0l.12,0A43.09,43.09,0,0,1,121.18,492Z" style="fill: #00aeef"/>
    <path d="M101.07,481.11a3.54,3.54,0,1,0,3.54,3.54A3.55,3.55,0,0,0,101.07,481.11Zm0,5.88a2.34,2.34,0,1,1,2.34-2.34A2.34,2.34,0,0,1,101.07,487Z" style="fill: #00aeef"/>
    <path d="M97.23,490.77a3.55,3.55,0,1,0,3.54,3.55A3.55,3.55,0,0,0,97.23,490.77Zm0,5.89a2.35,2.35,0,1,1,2.34-2.34A2.35,2.35,0,0,1,97.23,496.66Z" style="fill: #00aeef"/>
    <path d="M315.87,127.67h2.95a10.62,10.62,0,0,0,10.55-9.57h5a2.68,2.68,0,0,0,2.68-2.68V110a2.69,2.69,0,0,0-2.68-2.69H305.27v9.73A10.62,10.62,0,0,0,315.87,127.67Zm13.55-19.14h5a1.49,1.49,0,0,1,1.48,1.49v5.4a1.48,1.48,0,0,1-1.48,1.48h-5v-8.37Zm-22.95,0h21.75v8.53a9.42,9.42,0,0,1-9.4,9.41h-2.95a9.42,9.42,0,0,1-9.4-9.41Z" style="fill: #00aeef"/>
    <rect x="305.87" y="131.02" width="22.95" height="1.2" style="fill: #00aeef"/>
    <path d="M316.8,102.71l1-.62a6.2,6.2,0,0,0-.47-.67,2.32,2.32,0,0,1,.45-3.66,3.5,3.5,0,0,0,.65-5.31,5.81,5.81,0,0,1-.4-.57l-1,.62a5.35,5.35,0,0,0,.47.67,2.32,2.32,0,0,1-.45,3.66,3.5,3.5,0,0,0-.65,5.31A5.81,5.81,0,0,1,316.8,102.71Z" style="fill: #00aeef"/>
    <path d="M323,102.71l1-.62a8,8,0,0,0-.47-.67,2.44,2.44,0,0,1-.69-1.94A2.41,2.41,0,0,1,324,97.76a3.5,3.5,0,0,0,.65-5.31,5.81,5.81,0,0,1-.4-.57l-1,.62a6.58,6.58,0,0,0,.46.67,2.39,2.39,0,0,1,.69,1.94,2.43,2.43,0,0,1-1.13,1.72,3.48,3.48,0,0,0-.65,5.31A5.81,5.81,0,0,1,323,102.71Z" style="fill: #00aeef"/>
    <path d="M310.58,102.71l1-.62a7.92,7.92,0,0,0-.46-.67,2.38,2.38,0,0,1-.69-1.94,2.43,2.43,0,0,1,1.13-1.72,3.48,3.48,0,0,0,.65-5.31,5.81,5.81,0,0,1-.4-.57l-1,.62a6.65,6.65,0,0,0,.47.67,2.42,2.42,0,0,1,.68,1.94,2.37,2.37,0,0,1-1.13,1.72,3.5,3.5,0,0,0-.65,5.31A5.81,5.81,0,0,1,310.58,102.71Z" style="fill: #00aeef"/>
  </g>
</svg>
